<svg width="1327" height="1154" viewBox="0 0 1327 1154" fill="none" xmlns="http://www.w3.org/2000/svg">
  <g opacity="0.25">
    <path opacity="0.1" d="M122 212C155.137 212 182 185.137 182 152C182 118.863 155.137 92 122 92C88.8629 92 62 118.863 62 152C62 185.137 88.8629 212 122 212Z" fill="white"/>
    <path opacity="0.05" d="M1229 227C1262.14 227 1289 200.137 1289 167C1289 133.863 1262.14 107 1229 107C1195.86 107 1169 133.863 1169 167C1169 200.137 1195.86 227 1229 227Z" fill="white"/>
    <path opacity="0.1" d="M973 552C1006.14 552 1033 525.137 1033 492C1033 458.863 1006.14 432 973 432C939.863 432 913 458.863 913 492C913 525.137 939.863 552 973 552Z" fill="white"/>
    <path opacity="0.1" d="M195 432C228.137 432 255 405.137 255 372C255 338.863 228.137 312 195 312C161.863 312 135 338.863 135 372C135 405.137 161.863 432 195 432Z" fill="white"/>
    <path opacity="0.05" d="M195 432C228.137 432 255 405.137 255 372C255 338.863 228.137 312 195 312C161.863 312 135 338.863 135 372C135 405.137 161.863 432 195 432Z" fill="white"/>
    <path opacity="0.1" d="M787 287C820.137 287 847 260.137 847 227C847 193.863 820.137 167 787 167C753.863 167 727 193.863 727 227C727 260.137 753.863 287 787 287Z" fill="white"/>
    <path opacity="0.15" d="M465.5 267C520.452 267 565 222.452 565 167.5C565 112.548 520.452 68 465.5 68C410.548 68 366 112.548 366 167.5C366 222.452 410.548 267 465.5 267Z" fill="white"/>
    <path opacity="0.05" d="M973.5 968C1028.45 968 1073 923.452 1073 868.5C1073 813.548 1028.45 769 973.5 769C918.548 769 874 813.548 874 868.5C874 923.452 918.548 968 973.5 968Z" fill="white"/>
    <path opacity="0.15" d="M248.5 853C278.047 853 302 829.047 302 799.5C302 769.953 278.047 746 248.5 746C218.953 746 195 769.953 195 799.5C195 829.047 218.953 853 248.5 853Z" fill="white"/>
    <path opacity="0.15" d="M1062.5 352C1092.05 352 1116 328.047 1116 298.5C1116 268.953 1092.05 245 1062.5 245C1032.95 245 1009 268.953 1009 298.5C1009 328.047 1032.95 352 1062.5 352Z" fill="white"/>
    <path opacity="0.15" d="M623.5 455C651.943 455 675 431.943 675 403.5C675 375.057 651.943 352 623.5 352C595.057 352 572 375.057 572 403.5C572 431.943 595.057 455 623.5 455Z" fill="white"/>
    <path opacity="0.15" d="M1220.5 729C1248.94 729 1272 705.943 1272 677.5C1272 649.057 1248.94 626 1220.5 626C1192.06 626 1169 649.057 1169 677.5C1169 705.943 1192.06 729 1220.5 729Z" fill="white"/>
    <path opacity="0.1" d="M170 577C181.046 577 190 568.046 190 557C190 545.954 181.046 537 170 537C158.954 537 150 545.954 150 557C150 568.046 158.954 577 170 577Z" fill="white"/>
    <path opacity="0.05" d="M767 697C778.046 697 787 688.046 787 677C787 665.954 778.046 657 767 657C755.954 657 747 665.954 747 677C747 688.046 755.954 697 767 697Z" fill="white"/>
    <path opacity="0.1" d="M282 1054C293.046 1054 302 1045.05 302 1034C302 1022.95 293.046 1014 282 1014C270.954 1014 262 1022.95 262 1034C262 1045.05 270.954 1054 282 1054Z" fill="white"/>
    <path opacity="0.1" d="M507.5 938C530.972 938 550 918.972 550 895.5C550 872.028 530.972 853 507.5 853C484.028 853 465 872.028 465 895.5C465 918.972 484.028 938 507.5 938Z" fill="white"/>
    <path opacity="0.05" d="M512 697C545.137 697 572 670.137 572 637C572 603.863 545.137 577 512 577C478.863 577 452 603.863 452 637C452 670.137 478.863 697 512 697Z" fill="white"/>
    <path opacity="0.1" d="M1175 1104C1199.85 1104 1220 1083.85 1220 1059C1220 1034.15 1199.85 1014 1175 1014C1150.15 1014 1130 1034.15 1130 1059C1130 1083.85 1150.15 1104 1175 1104Z" fill="white"/>
  </g>
</svg>
